<svg width="36" height="35" viewBox="0 0 36 35" fill="none" xmlns="http://www.w3.org/2000/svg">
<path d="M24.1663 0.214294C27.2434 0.246795 28.8094 0.578398 30.4331 1.44678C31.9874 2.27801 33.2166 3.50721 34.0478 5.06149C34.9162 6.68521 35.2478 8.25118 35.2803 11.3283V23.6663C35.2478 26.7435 34.9162 28.3094 34.0478 29.9332C33.2166 31.4874 31.9874 32.7166 30.4331 33.5479C28.8094 34.4162 27.2434 34.7478 24.1663 34.7803H11.8283C8.75112 34.7478 7.18515 34.4162 5.56142 33.5479C4.00715 32.7166 2.77795 31.4874 1.94672 29.9332C1.07834 28.3094 0.746734 26.7435 0.714233 23.6663V11.3283C0.746734 8.25118 1.07834 6.68521 1.94672 5.06149C2.77795 3.50721 4.00715 2.27801 5.56142 1.44678C7.18515 0.578398 8.75112 0.246795 11.8283 0.214294H24.1663ZM23.6391 3.35446H12.3554L11.4795 3.36213C9.1549 3.40621 8.11404 3.64571 7.04359 4.21819C6.03702 4.75651 5.25645 5.53708 4.71813 6.54365C4.14565 7.6141 3.90615 8.65496 3.86207 10.9796L3.8544 11.8554V23.1392L3.86207 24.0151C3.90615 26.3397 4.14565 27.3805 4.71813 28.451C5.25645 29.4576 6.03702 30.2381 7.04359 30.7764C8.11404 31.3489 9.1549 31.5884 11.4795 31.6325L12.3554 31.6402H23.6391L24.515 31.6325C26.8396 31.5884 27.8805 31.3489 28.9509 30.7764C29.9575 30.2381 30.7381 29.4576 31.2764 28.451C31.8489 27.3805 32.0884 26.3397 32.1324 24.0151L32.1401 23.1392V11.8554L32.1324 10.9796C32.0884 8.65496 31.8489 7.6141 31.2764 6.54365C30.7381 5.53708 29.9575 4.75651 28.9509 4.21819C27.8805 3.64571 26.8396 3.40621 24.515 3.36213L23.6391 3.35446ZM18.5487 10.8069C19.2076 10.2421 20.1997 10.3184 20.7645 10.9773L25.4788 16.4773C25.4827 16.4819 25.4865 16.4865 25.4904 16.491C25.5552 16.5683 25.6126 16.6518 25.6617 16.7406C25.9222 17.2124 25.9222 17.7876 25.6618 18.2591C25.6126 18.3482 25.5552 18.4317 25.4905 18.5089L25.4788 18.5227L20.7645 24.0227C20.1997 24.6816 19.2076 24.7579 18.5487 24.1931C17.8898 23.6283 17.8135 22.6363 18.3783 21.9773L20.8678 19.0714H11.7142C10.8464 19.0714 10.1428 18.3679 10.1428 17.5C10.1428 16.6321 10.8464 15.9286 11.7142 15.9286H20.8678L18.3783 13.0227C17.8569 12.4144 17.8818 11.5223 18.407 10.9445L18.5487 10.8069Z" fill="black"/>
</svg>
