<svg width="92" height="92" viewBox="0 0 92 92" fill="none" xmlns="http://www.w3.org/2000/svg">
<path d="M36.2099 27.1175C36.1617 27.1621 36.1839 27.433 36.273 28.0342C36.3992 28.8544 36.4808 29.4259 36.5254 29.8007C36.5439 29.9751 36.5847 30.2646 36.6181 30.4502C36.6478 30.632 36.6886 30.9252 36.7072 31.0996C36.7258 31.274 36.7777 31.6303 36.8223 31.8901C36.8965 32.3354 36.8965 32.3688 36.8371 32.4282C36.7814 32.4876 36.5847 32.4913 34.4879 32.4987C31.879 32.5062 32.1165 32.469 32.1462 32.8587C32.1796 33.2447 32.406 33.8496 32.636 34.1502C32.6806 34.2059 32.7511 34.3024 32.7993 34.3655C32.9515 34.5621 33.4599 34.937 33.8162 35.1151C34.2541 35.3378 34.5065 35.4231 35.0149 35.5382C35.6532 35.6792 35.7497 35.6941 36.4623 35.7386C36.8297 35.7609 37.1674 35.7868 37.2119 35.798C37.3455 35.8239 37.4086 36.0021 37.4643 36.5476C37.494 36.826 37.5422 37.1822 37.5719 37.3344C37.6016 37.4865 37.635 37.7389 37.6498 37.8911C37.6647 38.0432 37.7055 38.3513 37.7426 38.5776C37.7834 38.8003 37.8317 39.1529 37.8502 39.357C37.8725 39.5611 37.9133 39.8617 37.943 40.025C37.9727 40.1883 38.0098 40.4369 38.021 40.5817C38.0358 40.7227 38.0766 41.0233 38.1137 41.2497C38.1509 41.4724 38.1954 41.773 38.2065 41.9177C38.2214 42.0587 38.2622 42.3593 38.2993 42.5857C38.3364 42.8084 38.3809 43.109 38.3921 43.2537C38.4069 43.3947 38.4477 43.6953 38.4849 43.9217C38.522 44.1444 38.5628 44.4561 38.5776 44.6083C38.5925 44.7605 38.6333 45.0611 38.6704 45.2763C38.7075 45.4916 38.7521 45.781 38.7632 45.9258C38.7743 46.0668 38.8189 46.3674 38.856 46.5938C38.8931 46.8164 38.9339 47.117 38.9488 47.2618C38.9599 47.4028 39.0007 47.7034 39.0415 47.9298C39.0786 48.1525 39.1195 48.4642 39.1343 48.6164C39.1492 48.7685 39.1826 49.0283 39.2122 49.1916C39.2419 49.3549 39.2902 49.7037 39.3199 49.9709C39.3496 50.2344 39.3904 50.5202 39.4127 50.6018C39.4312 50.6835 39.4646 50.9321 39.4869 51.1585C39.5091 51.3812 39.5611 51.7375 39.6019 51.949C39.639 52.1605 39.6724 52.3943 39.6724 52.4686C39.6724 52.5465 39.7133 52.8582 39.7615 53.1625C39.8097 53.4706 39.8617 53.8417 39.8765 53.9939C39.9174 54.4392 39.9953 54.788 40.0658 54.84C40.1178 54.8808 41.2757 54.8882 46.0742 54.8882C51.2031 54.8882 52.0232 54.8808 52.09 54.8326C52.1531 54.7918 52.1717 54.7287 52.1902 54.4726C52.2014 54.3019 52.2459 53.9716 52.2867 53.7378C52.3275 53.504 52.3758 53.17 52.3943 52.9955C52.4314 52.6764 52.4797 52.3387 52.643 51.1956C52.6949 50.8468 52.7506 50.4237 52.7729 50.2493C52.7914 50.0749 52.8323 49.8002 52.8657 49.6369C52.8953 49.4736 52.9176 49.2807 52.9176 49.2101C52.9213 49.1396 52.9621 48.8131 53.0104 48.4865C53.0623 48.1599 53.1217 47.7591 53.144 47.5958C53.259 46.72 53.3036 46.4045 53.3704 45.9814C53.4075 45.7254 53.4594 45.3505 53.478 45.1464C53.5003 44.9423 53.5411 44.6491 53.5708 44.497C53.6005 44.3448 53.6413 44.0368 53.6636 43.8141C53.6858 43.5877 53.7267 43.2982 53.7563 43.1609C53.786 43.0273 53.8194 42.7861 53.8306 42.6228C53.8454 42.4595 53.8862 42.1515 53.9271 41.9362C53.9642 41.721 54.0124 41.3721 54.0347 41.1569C54.0569 40.9417 54.0978 40.6485 54.1275 40.5074C54.1534 40.3627 54.1943 40.0621 54.2165 39.8394C54.2388 39.6131 54.2796 39.3124 54.3093 39.1714C54.339 39.0267 54.3761 38.7706 54.3872 38.5962C54.4021 38.4218 54.4429 38.1212 54.48 37.9282C54.5171 37.7352 54.558 37.442 54.5728 37.2787C54.5839 37.1154 54.621 36.8556 54.6507 36.7035C54.6804 36.5513 54.7175 36.299 54.7361 36.1468C54.7806 35.8017 54.814 35.7757 55.1814 35.7757C55.6936 35.772 56.755 35.6718 57.0964 35.5901C58.3396 35.3007 59.0448 34.8999 59.5087 34.2356C59.62 34.076 59.7128 33.9275 59.7128 33.909C59.7128 33.8904 59.7536 33.7791 59.8056 33.664C59.8575 33.549 59.9206 33.2855 59.954 33.0703C60.0022 32.7214 60.0022 32.6732 59.954 32.5952L59.8983 32.5099L58.8295 32.5062C58.2431 32.5062 57.2448 32.5062 56.6139 32.5099C55.9793 32.5136 55.4301 32.5024 55.393 32.4876C55.3596 32.4728 55.315 32.4282 55.2965 32.3837C55.2668 32.2983 55.3262 31.6897 55.4189 31.1738C55.4523 30.9994 55.4857 30.7322 55.5006 30.5801C55.5117 30.4279 55.5451 30.1755 55.5748 30.0234C55.6045 29.8712 55.6565 29.5112 55.6861 29.2292C55.7158 28.9434 55.7567 28.6502 55.7789 28.5797C55.816 28.435 55.9348 27.4515 55.9422 27.24L55.9459 27.1101L55.5934 27.1138C54.699 27.1212 53.9345 27.4924 53.3667 28.1863C53.144 28.461 53.1292 28.487 52.8879 28.9694C52.6059 29.5335 52.5317 29.7228 52.4166 30.1718C52.3869 30.2832 52.3312 30.4836 52.2904 30.6172C52.2533 30.7508 52.2088 30.9326 52.1976 31.0254C52.1828 31.1182 52.142 31.3074 52.1049 31.4522C52.0678 31.5932 52.0269 31.827 52.0121 31.9717C51.9824 32.3169 51.9379 32.4208 51.8006 32.469C51.7189 32.4987 49.9227 32.5099 45.9963 32.5099H40.3033L40.2514 32.4245C40.1846 32.3243 40.0955 31.9569 40.0436 31.5598C40.0213 31.3965 39.973 31.1479 39.9322 31.0068C39.8951 30.8621 39.8543 30.6654 39.8394 30.5689C39.8246 30.4687 39.7912 30.3203 39.7578 30.2349C39.7281 30.1496 39.6799 29.9863 39.6539 29.8749C39.5388 29.3999 39.1788 28.5686 38.945 28.242C38.7187 27.9229 38.1471 27.4256 38.0098 27.4256C37.9801 27.4256 37.9022 27.3922 37.8391 27.355C37.7352 27.292 37.3975 27.2066 36.9076 27.1287C36.6775 27.0916 36.2433 27.0841 36.2099 27.1175ZM51.3923 35.8202C51.4554 35.8833 51.448 36.106 51.3663 36.5736C51.3255 36.8 51.2847 37.108 51.2699 37.2602C51.2587 37.4123 51.2142 37.7092 51.1771 37.9208C51.1362 38.1323 51.1028 38.3661 51.1028 38.444C51.1028 38.522 51.062 38.8263 51.0101 39.1195C50.9581 39.4126 50.9173 39.7095 50.9173 39.7801C50.9173 39.8469 50.8765 40.166 50.8282 40.4852C50.7763 40.8043 50.7206 41.2051 50.702 41.3796C50.6798 41.554 50.639 41.8546 50.6093 42.0476C50.5759 42.2406 50.535 42.5412 50.5128 42.7156C50.4942 42.89 50.4534 43.198 50.42 43.4022C50.3421 43.9106 50.2493 44.5675 50.2085 44.9237C50.1862 45.087 50.1305 45.4878 50.0823 45.8144C50.034 46.141 49.9784 46.5492 49.9561 46.7237C49.9375 46.8981 49.8967 47.1987 49.867 47.3917C49.8336 47.5847 49.7928 47.8853 49.7743 48.0597C49.752 48.2341 49.7112 48.5421 49.6778 48.7463C49.6481 48.9504 49.6035 49.251 49.5813 49.4143C49.4551 50.3866 49.4217 50.6093 49.3586 51.0212C49.3215 51.2736 49.2695 51.5037 49.2436 51.5333C49.2064 51.5779 48.7834 51.5853 46.0519 51.5779C43.6657 51.5705 42.8937 51.5556 42.8603 51.5222C42.8344 51.4962 42.8047 51.3292 42.7861 51.1511C42.7713 50.973 42.723 50.6278 42.6822 50.3829C42.6377 50.1417 42.6043 49.8819 42.6043 49.8076C42.6043 49.7334 42.5634 49.4328 42.5115 49.1396C42.4595 48.8465 42.4187 48.5384 42.4187 48.4531C42.415 48.3677 42.3927 48.1673 42.3593 48.004C42.3296 47.8407 42.2888 47.555 42.2665 47.3731C42.2443 47.1876 42.196 46.8387 42.1552 46.5938C42.1181 46.3488 42.0661 45.9851 42.0476 45.7847C42.029 45.588 41.9882 45.3023 41.9585 45.1538C41.9288 45.0091 41.8917 44.7605 41.8806 44.6083C41.8657 44.4561 41.8249 44.1444 41.7878 43.9217C41.747 43.6953 41.6987 43.3391 41.6802 43.1238C41.6579 42.9086 41.6171 42.608 41.5874 42.4558C41.5577 42.3037 41.5132 41.9919 41.4909 41.7692C41.4686 41.5429 41.4352 41.3016 41.4167 41.2274C41.3944 41.1569 41.3536 40.8674 41.3239 40.5854C41.2942 40.3033 41.2497 39.999 41.2311 39.9062C41.2089 39.8172 41.168 39.5129 41.1383 39.2345C41.1049 38.9562 41.0567 38.5925 41.027 38.4292C40.9973 38.2659 40.9639 38.0135 40.9528 37.8725C40.9379 37.7278 40.8971 37.4383 40.86 37.2231C40.8229 37.0078 40.7709 36.6181 40.745 36.3546C40.7041 35.9019 40.7041 35.8722 40.7672 35.8239C40.8637 35.7571 51.3218 35.7497 51.3923 35.8202Z" fill="white"/>
<path d="M63.7579 60.1952C63.1715 60.2509 62.3477 60.57 61.8429 60.9374C61.7242 61.0265 61.5275 61.2009 61.405 61.3271C61.2046 61.5349 60.8632 61.9766 60.8632 62.0285C60.8632 62.0434 60.8224 62.1176 60.7704 62.1992C60.7185 62.2809 60.6776 62.3625 60.6776 62.3848C60.6776 62.4071 60.6442 62.4961 60.6034 62.5815C60.4772 62.8339 60.3436 63.5984 60.3436 64.0289C60.3473 64.6449 60.5552 65.4873 60.8112 65.8993C61.071 66.3149 61.1749 66.4485 61.4718 66.7454C61.817 67.0906 61.9469 67.1834 62.4033 67.406C63.0083 67.7029 63.5204 67.8328 64.2589 67.8662C64.6337 67.8811 64.7859 67.8699 65.2312 67.7883C65.5207 67.7363 65.8102 67.6695 65.8696 67.6361C65.9327 67.6064 66.0032 67.5805 66.0254 67.5805C66.0848 67.5805 66.597 67.3281 66.7454 67.2279C67.5173 66.7046 67.959 66.1368 68.2521 65.2795C68.5639 64.3703 68.4674 63.0009 68.0369 62.2141C67.9812 62.1065 67.8922 61.9506 67.8476 61.8652C67.7586 61.7057 67.1054 61.0339 66.879 60.8669C66.7194 60.7519 66.07 60.429 65.9289 60.3993C65.8696 60.3845 65.7285 60.34 65.6209 60.3028C65.2795 60.1804 64.463 60.1321 63.7579 60.1952ZM65.0531 62.1213C65.1348 62.1658 65.2238 62.1992 65.2535 62.1992C65.3092 62.1992 65.5764 62.3848 65.7582 62.5481C66.2778 63.0268 66.493 63.9175 66.263 64.6338C66.211 64.7971 66.1331 64.9715 66.0959 65.0272C66.0551 65.0828 66.0217 65.1422 66.0217 65.1608C66.0217 65.2387 65.5801 65.6432 65.3723 65.7583C64.9789 65.9735 64.4148 66.0403 63.9064 65.9327C63.4907 65.8473 63.0973 65.5838 62.8264 65.2164C62.7448 65.1088 62.6817 65.016 62.6817 65.0049C62.6817 64.9938 62.6371 64.8898 62.5815 64.7711C62.485 64.567 62.4813 64.5262 62.4813 64.0177C62.4813 63.4907 62.485 63.4722 62.6037 63.1938C62.8116 62.7151 63.1938 62.344 63.6837 62.151C63.9954 62.0285 64.0734 62.0174 64.5261 62.0322C64.8156 62.0434 64.9381 62.0656 65.0531 62.1213Z" fill="white"/>
<path d="M16.1547 60.3845C16.0879 60.4513 16.0841 67.5805 16.1509 67.6473C16.1843 67.6807 16.6408 67.6918 17.9806 67.6918C19.7285 67.6918 19.7693 67.6881 20.1256 67.6027C20.6489 67.4766 20.9309 67.3207 21.2649 66.9867C21.6286 66.6193 21.7771 66.3409 21.829 65.9067C21.9292 65.0977 21.6657 64.4445 21.072 64.0103C20.9346 63.9101 20.8196 63.8099 20.8196 63.7951C20.8196 63.7765 20.8493 63.7394 20.8827 63.7134C21.0905 63.5538 21.3614 63.231 21.4765 63.0046C21.6249 62.704 21.6732 62.37 21.6323 61.9283C21.5989 61.5943 21.4208 61.2455 21.1425 60.9709C20.9495 60.7816 20.8901 60.7408 20.5784 60.5923C20.0922 60.3585 20.1924 60.3659 18.1104 60.3511C16.6 60.34 16.1881 60.3474 16.1547 60.3845ZM19.4019 61.9692C19.5652 62.0582 19.7322 62.2735 19.7656 62.4553C19.8102 62.6743 19.5949 63.0491 19.376 63.1345C19.3017 63.1605 18.5929 63.1827 18.2032 63.1642C18.0288 63.1605 18.0214 63.1271 18.0288 62.5518C18.0288 62.2549 18.0436 61.9952 18.0585 61.9729C18.1104 61.8875 18.2626 61.8653 18.7413 61.8764C19.1718 61.8875 19.2646 61.8987 19.4019 61.9692ZM19.4279 64.7451C19.7062 64.8528 19.8547 65.0643 19.8547 65.3501C19.8547 65.6469 19.7285 65.8288 19.4279 65.9698C19.2609 66.0515 19.1904 66.0589 18.7191 66.0589C17.9954 66.0589 18.0288 66.0923 18.0288 65.3612C18.0288 64.7674 18.0436 64.7006 18.1958 64.6783C18.4259 64.6449 19.2906 64.6932 19.4279 64.7451Z" fill="white"/>
<path d="M22.9572 60.3919C22.8978 60.4365 22.8941 60.5923 22.909 62.9972L22.9201 65.5579L23.0351 65.8585C23.0945 66.0255 23.1836 66.2185 23.2244 66.289C23.2689 66.3632 23.3061 66.43 23.3061 66.4448C23.3061 66.4782 23.5028 66.738 23.6586 66.9087C23.8479 67.1166 24.2561 67.406 24.5307 67.5285C24.913 67.6918 25.0318 67.7289 25.4474 67.8031C25.8074 67.8699 25.9744 67.8848 26.2453 67.8662C26.635 67.8402 27.2807 67.7141 27.4218 67.6361C27.4774 67.6064 27.5813 67.5582 27.663 67.5248C27.9005 67.432 28.2976 67.1463 28.5128 66.9162C28.9025 66.4894 29.0918 66.1368 29.2291 65.5579C29.3182 65.1868 29.3182 65.183 29.3182 62.8042C29.3182 60.4847 29.3144 60.4179 29.2476 60.3808C29.2031 60.3585 28.8283 60.3437 28.2902 60.3437C27.5479 60.3437 27.3921 60.3548 27.3215 60.4031L27.2399 60.4587V62.73C27.2399 65.1868 27.2362 65.2313 27.0395 65.5282C26.7092 66.0292 25.8482 66.1368 25.3695 65.7434C25.2767 65.6692 25.1468 65.5096 25.08 65.3946L24.9575 65.1868L24.9464 62.8153C24.939 61.175 24.9241 60.4253 24.8944 60.3919C24.8388 60.3214 23.0537 60.3214 22.9572 60.3919Z" fill="white"/>
<path d="M30.7321 60.3956C30.7024 60.4327 30.6913 61.3976 30.6913 64.0363C30.6913 66.0106 30.7024 67.6398 30.7136 67.6584C30.747 67.7103 32.5988 67.6992 32.6508 67.6473C32.6842 67.6139 32.6953 67.3281 32.6953 66.597C32.6953 65.3834 32.6805 65.428 33.0776 65.428C33.4116 65.4317 33.4969 65.4762 33.6268 65.7286C33.9571 66.3706 34.0573 66.5599 34.2392 66.8939C34.3468 67.098 34.4693 67.3355 34.5101 67.4172C34.64 67.6955 34.6214 67.6918 35.8016 67.6918C36.6774 67.6918 36.8518 67.6844 36.8518 67.6398C36.8518 67.5879 36.7071 67.291 36.5178 66.9681C36.4584 66.8642 36.3916 66.7417 36.3657 66.6898C36.3397 66.6378 36.2061 66.3966 36.0688 66.1516C35.9352 65.9067 35.7645 65.595 35.6902 65.4577C35.616 65.3203 35.5344 65.1756 35.5084 65.1311C35.4639 65.0606 35.4861 65.0309 35.8016 64.7303C36.1653 64.3814 36.258 64.2627 36.4102 63.9435C36.5141 63.7208 36.5364 63.6355 36.5921 63.1864C36.6366 62.8376 36.5512 62.1399 36.4436 61.958C36.4065 61.8949 36.3657 61.8059 36.3508 61.7539C36.2618 61.4459 35.7236 60.8892 35.3228 60.6925C34.64 60.3511 34.5843 60.3437 32.4133 60.3437C31.0661 60.3437 30.7655 60.3511 30.7321 60.3956ZM34.0091 62.1881C34.1909 62.2401 34.2503 62.2809 34.3653 62.4293C34.6734 62.8153 34.5769 63.3423 34.1538 63.6132L33.9794 63.7208H33.3745C32.8178 63.7208 32.7695 63.7171 32.7324 63.6503C32.7102 63.6058 32.6953 63.3052 32.6953 62.9341C32.6953 62.2252 32.7176 62.1399 32.9106 62.1176C33.1592 62.0879 33.8087 62.1324 34.0091 62.1881Z" fill="white"/>
<path d="M37.5088 60.3697C37.4568 60.4179 37.4828 60.5552 37.557 60.622C37.5978 60.6591 37.6424 60.7222 37.6535 60.7668C37.6684 60.8076 37.7166 60.8966 37.7648 60.9597C37.8131 61.0228 37.8539 61.0822 37.8539 61.0933C37.8539 61.1045 37.9207 61.2232 38.0024 61.3494C38.084 61.4793 38.1657 61.6203 38.1842 61.6611C38.2028 61.702 38.2844 61.843 38.3698 61.9766C38.4514 62.1102 38.5924 62.3403 38.6778 62.4924C38.7669 62.6409 38.8819 62.8413 38.9376 62.9378C38.9932 63.0306 39.0749 63.1679 39.1157 63.2384C39.1565 63.3089 39.2493 63.4611 39.3198 63.5724C39.4646 63.8025 39.4794 63.9064 39.3866 64.0474C39.2827 64.2033 39.2345 64.2812 39.1343 64.4631C39.0823 64.5559 38.997 64.7006 38.9487 64.786C38.8968 64.875 38.8151 65.016 38.7632 65.1014C38.7149 65.1905 38.6296 65.3352 38.5776 65.428C38.5256 65.5208 38.4403 65.6655 38.392 65.7509C38.3401 65.8399 38.2584 65.981 38.2065 66.0663C38.1582 66.1554 38.0729 66.3001 38.0209 66.3929C37.969 66.4857 37.8836 66.6267 37.8354 66.7083C37.7871 66.79 37.724 66.8976 37.698 66.9496C37.6721 67.0015 37.5793 67.1611 37.4902 67.3096C37.4049 67.4543 37.3344 67.6027 37.3344 67.6324C37.3344 67.6844 37.4531 67.6918 38.3957 67.6918C39.0526 67.6918 39.4831 67.677 39.5277 67.6547C39.5648 67.6324 39.6316 67.5545 39.6724 67.4766C39.7169 67.4023 39.832 67.1871 39.9322 67.0052C40.0361 66.8197 40.1548 66.6044 40.1957 66.5228C40.2402 66.4411 40.3293 66.2741 40.3961 66.1517C40.4629 66.0292 40.5519 65.8585 40.5928 65.7731C40.6447 65.6655 40.7004 65.6098 40.7635 65.5913C40.8748 65.5653 40.9713 65.6247 40.9713 65.7212C40.9713 65.7546 40.9973 65.8214 41.0307 65.8659C41.0826 65.9401 41.2422 66.237 41.5168 66.764C41.8026 67.3096 41.9733 67.6027 42.0364 67.6436C42.0847 67.677 42.3778 67.6918 43.1238 67.6918C43.6842 67.6918 44.1666 67.6918 44.1926 67.6918C44.2891 67.6918 44.2186 67.5248 43.8846 66.9681C43.7732 66.7789 43.4467 66.2185 43.3799 66.096C43.3465 66.0366 43.2908 65.9438 43.25 65.8845C43.2129 65.8288 43.1572 65.736 43.1238 65.6803C43.0941 65.6247 42.9865 65.4354 42.8826 65.261C42.7824 65.0828 42.671 64.8973 42.6413 64.8416C42.5745 64.7266 42.363 64.3703 42.2962 64.259C42.2702 64.2181 42.222 64.1402 42.1886 64.0845C42.0735 63.9138 42.0772 63.9064 42.4632 63.2421C42.5189 63.1493 42.5894 63.0194 42.6228 62.9601C42.6525 62.897 42.7304 62.7745 42.7898 62.6817C42.8492 62.5889 42.9271 62.4628 42.9568 62.4034C42.9902 62.3403 43.0644 62.2067 43.1238 62.1065C43.1832 62.0026 43.2759 61.8467 43.3279 61.7539C43.3799 61.6611 43.5246 61.4199 43.6433 61.2158C43.7658 61.0117 43.8846 60.8039 43.9068 60.7519C43.9291 60.7 43.9811 60.622 44.0256 60.5738C44.0887 60.507 44.0961 60.4736 44.0664 60.4253C44.0293 60.3697 43.918 60.3622 43.0124 60.3511C41.8546 60.34 41.8917 60.3325 41.7358 60.648C41.6838 60.7556 41.5465 61.0117 41.4352 61.2158C41.3239 61.4199 41.1977 61.6537 41.1569 61.7354C41.116 61.817 41.0678 61.9098 41.0455 61.9395C41.027 61.9692 40.9861 62.0582 40.9565 62.1325C40.9119 62.2401 40.8785 62.2735 40.8117 62.2735C40.7115 62.2735 40.6225 62.1881 40.5816 62.0508C40.5668 61.9989 40.5371 61.9395 40.5185 61.9135C40.5 61.8912 40.4035 61.7131 40.3033 61.5238C40.2031 61.3346 40.0769 61.1008 40.025 61.0006C39.973 60.9041 39.8913 60.7445 39.8394 60.6443C39.6872 60.3363 39.7206 60.3437 38.5553 60.3437C37.9949 60.3437 37.5199 60.3548 37.5088 60.3697Z" fill="white"/>
<path d="M47.5623 60.4253C47.5103 60.4736 47.4324 60.6109 47.3915 60.7334C47.2134 61.2381 47.1726 61.3383 47.1355 61.4051C47.0835 61.5016 46.9128 61.9321 46.8646 62.0879C46.846 62.1584 46.8052 62.2586 46.7755 62.3106C46.7495 62.3626 46.6938 62.4962 46.653 62.6075C46.5268 62.9712 46.46 63.1419 46.3858 63.2978C46.3487 63.3794 46.3153 63.4685 46.3153 63.4908C46.3153 63.5167 46.2745 63.6206 46.2225 63.7208C46.1706 63.821 46.1297 63.925 46.1297 63.9509C46.1297 63.9769 46.1038 64.0474 46.0704 64.1105C46.037 64.1699 45.9813 64.3035 45.9442 64.4074C45.7735 64.8787 45.6918 65.0828 45.6362 65.1942C45.6028 65.261 45.5731 65.3352 45.5731 65.3612C45.5731 65.3872 45.5322 65.4911 45.4803 65.595C45.432 65.6952 45.3875 65.8065 45.3875 65.8362C45.3875 65.8659 45.3615 65.9401 45.3281 66.0032C45.2947 66.0626 45.2391 66.1962 45.202 66.3001C45.0721 66.6601 44.9533 66.9681 44.8939 67.098C44.7529 67.4172 44.6898 67.599 44.7084 67.6436C44.7232 67.6844 44.9273 67.6918 45.7661 67.6844L46.8015 67.6732L46.9054 67.4283C46.9611 67.2947 47.0204 67.1351 47.0316 67.0757C47.0427 67.0164 47.1021 66.8568 47.1652 66.7158L47.2765 66.4671H48.5123C49.4253 66.4708 49.763 66.482 49.8075 66.5154C49.8855 66.5747 49.9485 66.6935 50.0079 66.905C50.1267 67.3133 50.2417 67.5953 50.3048 67.6398C50.3605 67.6807 50.5869 67.6918 51.3588 67.6918C51.9006 67.6918 52.3682 67.677 52.3942 67.6584C52.435 67.6324 52.435 67.5953 52.3905 67.4469C52.3608 67.3467 52.3014 67.1982 52.2569 67.1166C52.2161 67.0349 52.179 66.9421 52.179 66.9125C52.179 66.8828 52.1344 66.7714 52.0862 66.6712C52.0342 66.5673 51.9934 66.4634 51.9934 66.4374C51.9934 66.4114 51.9526 66.3112 51.9006 66.2148C51.8487 66.1183 51.8078 66.0181 51.8078 65.9921C51.8078 65.9661 51.767 65.8622 51.7151 65.762C51.6631 65.6618 51.6223 65.5579 51.6223 65.5319C51.6223 65.5059 51.5815 65.3983 51.5295 65.2981C51.4813 65.1942 51.4367 65.0903 51.4367 65.0643C51.4367 65.0383 51.3959 64.9344 51.3439 64.8342C51.292 64.734 51.2512 64.6301 51.2512 64.6041C51.2512 64.5781 51.2066 64.4705 51.1584 64.3703C51.1064 64.2664 51.0656 64.1588 51.0656 64.1291C51.0656 64.0957 51.0433 64.04 51.0137 63.9992C50.9691 63.9287 50.8838 63.7246 50.7242 63.2755C50.6834 63.1642 50.6351 63.0528 50.6166 63.0306C50.598 63.0083 50.5498 62.9007 50.5126 62.7893C50.3197 62.2475 50.2751 62.1399 50.2417 62.0991C50.2232 62.0731 50.1824 61.984 50.1564 61.8949C50.1267 61.8059 50.045 61.5943 49.9708 61.4199C49.8966 61.2455 49.8112 61.0302 49.7815 60.9412C49.7519 60.8484 49.7036 60.7371 49.6739 60.6888C49.6442 60.6443 49.6183 60.5812 49.6183 60.5478C49.6183 60.5181 49.5849 60.4587 49.544 60.4179C49.4735 60.3474 49.4216 60.3437 48.5643 60.3437C47.6736 60.3437 47.655 60.3437 47.5623 60.4253ZM48.6422 62.8376C48.6645 62.8636 48.6942 62.9526 48.709 63.0343C48.7201 63.1122 48.7647 63.2421 48.8055 63.32C48.8426 63.3943 48.876 63.487 48.876 63.5242C48.876 63.5613 48.9168 63.68 48.9688 63.7876C49.0208 63.899 49.0616 64.014 49.0616 64.0474C49.0616 64.0845 49.1061 64.2033 49.1581 64.3146C49.2657 64.5484 49.3139 64.849 49.2508 64.8862C49.2286 64.901 48.8983 64.9158 48.5197 64.9196C47.8443 64.927 47.8258 64.927 47.7961 64.849C47.7627 64.76 47.7886 64.6301 47.8592 64.5187C47.8851 64.4779 47.9222 64.3777 47.9408 64.2961C47.9631 64.2144 48.0113 64.0623 48.0521 63.9621C48.1226 63.7802 48.156 63.6874 48.2748 63.3497C48.3045 63.2569 48.349 63.1345 48.3676 63.0788C48.4084 62.9601 48.5309 62.7931 48.5791 62.7931C48.594 62.7931 48.6237 62.8153 48.6422 62.8376Z" fill="white"/>
<path d="M53.0735 60.4068L52.9918 60.4736L53.003 64.0474C53.0141 67.1759 53.0215 67.625 53.0698 67.6547C53.0994 67.6732 53.5151 67.6918 54.005 67.6918C54.8474 67.6918 54.8882 67.6881 54.9253 67.6176C54.9513 67.5693 54.9625 66.9496 54.9625 65.7249C54.9587 64.7266 54.9662 63.8916 54.981 63.8693C55.0181 63.8062 55.1072 63.8285 55.1517 63.9101C55.174 63.9546 55.2631 64.0845 55.3521 64.1996C55.7158 64.682 56.0758 65.1719 56.0758 65.1868C56.0758 65.1979 56.1983 65.3649 56.3467 65.5579C56.4915 65.7509 56.755 66.1034 56.9294 66.3446C57.1001 66.5859 57.3005 66.8568 57.3747 66.9496C57.4489 67.0423 57.5751 67.2131 57.6531 67.3355C57.9017 67.7029 57.8683 67.6918 58.7256 67.6918C59.26 67.6918 59.4864 67.6807 59.5198 67.6473C59.5829 67.5842 59.5829 60.4513 59.5198 60.3882C59.4641 60.3325 57.872 60.3251 57.731 60.3808L57.6345 60.4179V62.1993V63.9806H57.5417C57.4712 63.9806 57.4081 63.925 57.2708 63.7357C57.1038 63.4982 56.9442 63.2829 55.957 61.9321C54.9476 60.5552 54.8177 60.3919 54.7324 60.3659C54.6841 60.3548 54.3093 60.3437 53.9011 60.3437C53.2405 60.3437 53.144 60.3511 53.0735 60.4068Z" fill="white"/>
<path d="M68.5639 60.3956C68.5008 60.4402 68.5008 60.455 68.601 60.6999C68.6566 60.841 68.7309 61.0377 68.768 61.1416C68.8051 61.2418 68.8608 61.3754 68.8942 61.4385C68.9276 61.4978 68.9535 61.5721 68.9535 61.598C68.9535 61.624 68.9944 61.7242 69.0426 61.8207C69.0908 61.9172 69.1428 62.0545 69.1576 62.125C69.1725 62.1955 69.2022 62.2735 69.2207 62.2995C69.2393 62.3254 69.2987 62.459 69.3506 62.5963C69.3989 62.7337 69.4657 62.9155 69.4954 62.9972C69.5288 63.0788 69.5844 63.2124 69.6253 63.2978C69.6624 63.3794 69.6958 63.4685 69.6958 63.4907C69.6958 63.513 69.7366 63.6243 69.7885 63.7357C69.8405 63.847 69.8813 63.9583 69.8813 63.9806C69.8813 64.0029 69.9222 64.1031 69.9741 64.2033C70.0261 64.3035 70.0669 64.4074 70.0669 64.4334C70.0669 64.4556 70.1003 64.5447 70.1374 64.6264C70.1745 64.7117 70.2265 64.8379 70.2487 64.9121C70.271 64.9863 70.323 65.1088 70.3638 65.1867C70.4046 65.2684 70.438 65.3575 70.438 65.3909C70.438 65.4206 70.464 65.4948 70.4974 65.5579C70.5531 65.6655 70.5865 65.7434 70.772 66.263C70.8165 66.3855 70.8685 66.5042 70.8871 66.5265C70.9056 66.5487 70.9539 66.6638 70.9947 66.7788C71.0355 66.8939 71.1023 67.0832 71.1431 67.1982C71.184 67.317 71.2619 67.4765 71.3101 67.5508L71.4029 67.6918H72.275C73.2733 67.6918 73.2474 67.6992 73.3476 67.3541C73.381 67.2502 73.4218 67.1425 73.4403 67.1203C73.4589 67.098 73.4997 66.9941 73.5294 66.8939C73.5888 66.7046 73.7113 66.3855 73.8003 66.1888C73.83 66.1257 73.8857 65.9847 73.9228 65.8733C73.9636 65.762 74.0378 65.5504 74.0935 65.4094C74.1492 65.2647 74.2234 65.0643 74.2605 64.9604C74.2976 64.8565 74.3459 64.7377 74.3681 64.7006C74.3904 64.6635 74.4424 64.5336 74.4832 64.4148C74.6316 63.9917 74.6984 63.8099 74.7578 63.7023C74.7912 63.6392 74.8172 63.5687 74.8172 63.539C74.8172 63.5093 74.8506 63.4165 74.8877 63.3349C74.9285 63.2495 74.9953 63.0825 75.0399 62.96C75.0844 62.8376 75.1512 62.652 75.1883 62.5481C75.2254 62.4442 75.2737 62.3254 75.2959 62.2883C75.3182 62.2512 75.3664 62.125 75.4073 62.0137C75.5334 61.6537 75.5965 61.4793 75.6708 61.3197C75.7116 61.2306 75.745 61.1416 75.745 61.1193C75.745 61.0933 75.7858 60.9857 75.8378 60.8781C75.9602 60.6183 75.9899 60.4698 75.9305 60.3993C75.8897 60.3511 75.7264 60.3437 74.8543 60.3437C73.6704 60.3437 73.7632 60.314 73.6296 60.7333C73.5814 60.8744 73.5071 61.1007 73.4589 61.2343C73.4107 61.3679 73.3624 61.535 73.3476 61.6055C73.3364 61.676 73.3105 61.7539 73.2919 61.7762C73.2771 61.7947 73.2362 61.9098 73.2065 62.0248C73.1546 62.2178 73.1026 62.3848 72.9393 62.8673C72.9059 62.96 72.8503 63.1345 72.8132 63.2569C72.7241 63.5464 72.6387 63.8099 72.5645 64.0177C72.5348 64.1105 72.4792 64.2924 72.4457 64.426C72.3975 64.6189 72.3715 64.6709 72.3084 64.6783C72.2194 64.6895 72.1266 64.5707 72.0895 64.4037C72.0561 64.2515 71.8928 63.7468 71.7889 63.4685C71.7406 63.3423 71.6998 63.2124 71.6998 63.1827C71.6998 63.153 71.659 63.0231 71.6107 62.897C71.4957 62.5815 71.414 62.344 71.325 62.0322C71.2842 61.8912 71.2359 61.7576 71.2211 61.7354C71.2025 61.7168 71.1691 61.6055 71.1431 61.4941C71.1171 61.3828 71.0763 61.2566 71.0503 61.2121C71.0207 61.1675 70.9873 61.0673 70.9761 60.9894C70.9427 60.8113 70.8165 60.4958 70.7423 60.4068C70.6904 60.3511 70.5902 60.3437 69.6587 60.3437C68.857 60.3437 68.6195 60.3548 68.5639 60.3956Z" fill="white"/>
</svg>
