<svg width="16" height="16" viewBox="0 0 16 16" fill="none" xmlns="http://www.w3.org/2000/svg">
<path fill-rule="evenodd" clip-rule="evenodd" d="M3 0C1.34315 0 0 1.34315 0 3V13C0 14.6569 1.34315 16 3 16H13C14.6569 16 16 14.6569 16 13V3C16 1.34315 14.6569 0 13 0H3ZM12.6358 5.98694C12.9876 5.63576 12.9881 5.06591 12.6369 4.71414C12.2857 4.36238 11.7159 4.36191 11.3641 4.71309L6.69116 9.37828L4.63584 7.32637C4.28408 6.97519 3.71423 6.97566 3.36305 7.32743C3.01187 7.67919 3.01234 8.24904 3.36411 8.60022L6.0553 11.2869C6.40665 11.6377 6.97568 11.6377 7.32703 11.2869L12.6358 5.98694Z" fill="#2F5B79"/>
</svg>
