<svg width="66" height="44" viewBox="0 0 66 44" fill="none" xmlns="http://www.w3.org/2000/svg">
<path d="M12.1206 38.6759V39.3724H13.1495V39.7978H12.1206V40.5504H13.3137V40.9759H11.6941V38.2559H13.3137V38.6759H12.1206Z" fill="#CF2027"/>
<path d="M13.9434 40.4975L14.2802 40.2567C14.4012 40.4694 14.6279 40.5904 14.8892 40.5904C15.1947 40.5904 15.4258 40.4435 15.4258 40.2362C15.4258 39.9846 15.0684 39.8334 14.751 39.6963C14.4325 39.5549 14.0783 39.3896 14.0783 38.962C14.0783 38.5344 14.4649 38.2062 14.954 38.2062C15.3416 38.2062 15.632 38.393 15.7432 38.6921L15.4258 38.9113C15.3416 38.7277 15.1537 38.6241 14.9572 38.6241C14.7078 38.6241 14.5081 38.7796 14.5081 38.9718C14.5081 39.1845 14.7596 39.2601 15.09 39.4015C15.5197 39.5905 15.8545 39.7978 15.8545 40.2265C15.8545 40.7092 15.4355 41.0191 14.8849 41.0191C14.4379 41.0191 14.0988 40.8096 13.9434 40.4964V40.4975Z" fill="url(#paint0_linear_2055_774)"/>
<path d="M18.27 38.6791H17.5412V40.9759H17.1126V38.6791H16.3838V38.2559H18.27V38.6791Z" fill="url(#paint1_linear_2055_774)"/>
<path d="M18.5867 40.7675C18.5867 40.6109 18.7162 40.4802 18.8739 40.4802C19.0315 40.4802 19.1611 40.612 19.1611 40.7675C19.1611 40.9229 19.0315 41.0525 18.8739 41.0525C18.7162 41.0525 18.5867 40.924 18.5867 40.7675Z" fill="url(#paint2_linear_2055_774)"/>
<path d="M54.0537 38.2299V40.9747H53.6272V38.7784L53.259 38.8885V38.4437L53.9285 38.2309H54.0537V38.2299Z" fill="url(#paint3_linear_2055_774)"/>
<path d="M56.7084 39.1532C56.7084 39.5365 56.5637 39.6423 55.7928 40.9791H55.3048L55.8835 39.9781C55.8004 40.0084 55.7129 40.0235 55.6265 40.0235C55.1968 40.0235 54.7952 39.6574 54.7952 39.1478C54.7952 38.6381 55.2173 38.2202 55.7496 38.2202C56.2819 38.2202 56.7084 38.6554 56.7084 39.1532ZM56.2819 39.1553C56.2819 38.8854 56.0411 38.6446 55.7507 38.6446C55.4603 38.6446 55.2206 38.8854 55.2206 39.1553C55.2206 39.4253 55.4581 39.6715 55.7485 39.6715C56.039 39.6715 56.2819 39.4372 56.2819 39.1553Z" fill="url(#paint4_linear_2055_774)"/>
<path d="M59.2243 39.1532C59.2243 39.5365 59.0796 39.6423 58.3087 40.9791H57.8207L58.3994 39.9781C58.3162 40.0084 58.2288 40.0235 58.1424 40.0235C57.7127 40.0235 57.311 39.6574 57.311 39.1478C57.311 38.6381 57.7332 38.2202 58.2655 38.2202C58.7978 38.2202 59.2243 38.6554 59.2243 39.1532ZM58.7978 39.1553C58.7978 38.8854 58.557 38.6446 58.2666 38.6446C57.9761 38.6446 57.7364 38.8854 57.7364 39.1553C57.7364 39.4253 57.974 39.6715 58.2644 39.6715C58.5549 39.6715 58.7978 39.4372 58.7978 39.1553Z" fill="url(#paint5_linear_2055_774)"/>
<path d="M61.6398 38.2558V38.3347L60.5504 40.9748H60.1012L61.0341 38.6716H59.7805V38.2548H61.6398V38.2558Z" fill="url(#paint6_linear_2055_774)"/>
<path d="M29.0726 34.4043V33.6959C29.0726 29.0647 29.0877 24.4323 29.0618 19.801C29.0554 18.6478 29.5175 17.9859 30.5141 17.3067C31.0129 16.9655 31.5668 16.6027 32.085 16.0779V23.2078C32.627 22.2252 34.3848 22.1485 35.0391 21.0709C37.2784 22.4347 38.234 23.9918 36.2171 25.8242C36.9815 25.9829 37.9424 26.8057 37.9424 29.2299C37.9424 29.4685 37.9425 29.7406 37.9565 29.9976C38.0051 30.9057 38.8051 31.2793 39.5987 30.8226C40.0274 30.5753 40.239 30.22 40.2325 29.6953C40.2098 28.068 40.2671 25.4624 40.2098 23.8363C40.1699 22.6884 40.6569 22.0082 41.6264 21.397C42.1857 21.0439 42.6737 20.7858 43.2363 20.2546C43.2427 20.3453 43.2384 20.5429 43.2384 20.7059C43.2406 23.0901 43.2395 26.4505 43.2395 28.8347C43.2395 29.0636 43.2384 29.2936 43.2395 29.5225C43.2503 30.8345 43.9079 31.2491 44.9498 30.8571C45.0286 31.7026 44.7522 33.4983 42.7709 33.4983C41.688 33.4983 40.8015 32.5945 40.4647 31.4759C40.3869 31.6616 40.3783 31.7123 40.28 31.9056C39.6581 33.129 38.1336 33.4983 36.92 33.129C35.7874 32.7846 35.1438 31.9326 34.9776 30.6779C34.9117 30.1779 34.8901 29.6737 34.8415 29.1716C34.7692 28.406 34.4291 27.9514 33.819 27.9006C33.1637 27.8466 32.5417 28.1339 32.2826 28.866C32.0937 29.3983 32.1066 29.8853 32.1185 30.3539C32.1563 31.7976 31.5851 32.5092 30.4158 33.3925C29.9828 33.7197 29.579 34.0145 29.0716 34.4054L29.0726 34.4043ZM32.0947 27.1232C32.9661 26.5217 34.3146 26.093 34.6861 25.0122C35.0089 23.9799 33.9454 23.5911 33.0784 23.9853C32.5212 24.239 32.1012 24.8869 32.0818 25.4646C32.0613 26.1028 32.085 26.5433 32.0947 27.1232Z" fill="black"/>
<path d="M63.6527 22.9768C63.6527 25.2303 63.6527 27.485 63.6527 29.7385C63.6527 30.8216 63.7358 31.653 65.2992 31.3107C65.3456 32.2361 64.7691 33.0989 63.7887 33.2997C62.7263 33.5178 61.4338 33.0665 61.0732 31.6746C60.1522 33.9411 56.939 33.5988 55.8042 32.0828C54.4579 30.2827 54.9124 27.6923 56.3992 25.9247C58.334 23.6236 62.4596 22.8645 63.6527 21.1001C63.6527 21.4251 63.6527 22.3127 63.6527 22.9768ZM60.6845 24.6526C59.2442 25.4971 58.0025 26.6999 57.846 28.3866C57.7618 29.298 57.7553 29.9469 58.2768 30.7622C58.8134 31.6001 60.6705 31.7135 60.6705 29.7633C60.6705 28.1048 60.6835 26.4224 60.6835 24.6526H60.6845Z" fill="black"/>
<path d="M23.9897 20.4564C30.4323 24.9311 28.0634 35.4646 21.3498 33.7024C18.4205 32.9335 17.9282 29.9706 18.1895 28.1036C18.7531 24.0813 23.3224 22.1636 23.9897 20.4575V20.4564ZM23.2846 30.9996C25.539 29.8809 25.81 26.0757 23.7089 24.1137C23.2349 24.6104 22.8398 24.9279 22.0375 25.5671C20.8704 26.4958 20.0347 28.2893 20.6112 29.7762C21.042 30.8884 22.2168 31.5298 23.2846 30.9996Z" fill="black"/>
<path d="M45.748 32.8353C46.2436 29.9469 48.0068 27.5378 50.1738 25.6655C48.3696 25.5434 47.1635 24.8966 46.4887 24.3805C44.7093 23.021 45.5375 20.6778 47.0912 19.8162C46.8882 20.8182 47.6289 21.5989 48.308 22.1107C50.0248 23.4043 52.8655 24.4734 54.6146 24.8491C52.6323 26.0823 50.5398 27.6491 49.3575 29.7072C49.9017 29.5851 50.9727 29.3757 51.9272 29.5948C52.9054 29.8205 53.6709 30.3237 54.2054 31.18C55.0983 32.6075 54.6351 34.4043 53.4302 35.4971C53.4021 34.0156 51.8333 32.033 50.0496 31.9035C48.7367 31.8084 47.0696 32.1453 45.7469 32.8353H45.748Z" fill="black"/>
<path d="M44.5435 42.1691H42.912C43.128 41.5169 42.7382 40.991 42.5644 40.3971H40.3736C40.1847 41.0061 40.0141 41.586 40.5269 42.1594H39.0898C39.2723 41.7966 39.4904 41.4165 39.6578 41.018C39.8899 40.4652 40.0875 39.8983 40.2948 39.3368C40.5237 38.7159 40.7472 38.0939 40.9718 37.4719C41.1305 37.0325 41.1456 36.8781 41.0754 36.4062C41.4501 36.3004 42.0105 36.1924 42.41 36.0801C42.4629 36.2151 42.3322 36.3274 42.3743 36.4418C42.9433 38.0054 43.5059 39.5711 44.0824 41.1314C44.2131 41.4845 44.3685 41.8495 44.5435 42.1691ZM40.4924 40.0062H42.41C42.0677 39.0841 41.7362 38.1922 41.4047 37.2992C41.1046 38.19 40.8044 39.0787 40.4924 40.0062Z" fill="black"/>
<path d="M49.5378 42.1755C49.0336 42.1755 48.3771 42.1755 47.779 42.1755C48.0597 41.8915 48.0478 40.5213 48.0467 40.1919C48.0446 38.8703 48.0424 37.0411 48.0446 36.8413C47.3255 36.8413 46.7457 37.026 46.1821 38.0906C45.815 37.6652 45.7632 36.7139 46.2458 36.2312C47.8675 36.2258 49.4601 36.2258 51.0764 36.2258C51.5882 36.7387 51.5094 37.6922 51.1423 38.1014C50.7611 37.3294 50.2699 36.8413 49.2441 36.8413C49.2441 37.0335 49.2614 38.7569 49.2506 40.1714C49.2485 40.4759 49.2571 41.9002 49.5389 42.1745L49.5378 42.1755Z" fill="black"/>
<path d="M38.07 36.2681C38.0786 36.2681 38.0819 36.2789 38.0754 36.2843C37.5355 36.7043 37.2753 37.2431 36.973 37.7517C36.6847 38.2355 36.3932 38.7192 36.1211 39.2116C36.0401 39.3585 35.9969 39.5226 35.9948 39.69C35.9883 40.2461 35.9937 40.8097 35.9872 41.3691C35.984 41.6498 36.025 41.9111 36.2679 42.1476C36.2733 42.153 36.2701 42.1627 36.2625 42.1627H34.5544C34.5458 42.1627 34.5426 42.1541 34.548 42.1476C34.846 41.8442 34.8276 41.3809 34.8309 41.1142C34.8352 40.7525 34.8762 40.1262 34.7542 39.6705C34.6333 39.2159 33.6237 37.6113 33.3927 37.2302C33.1983 36.9095 32.9846 36.5996 32.7783 36.2832C32.774 36.2767 32.7783 36.2691 32.7859 36.2691H33.6097C33.9984 36.2691 34.3558 36.4786 34.5339 36.8134C34.9237 37.5336 35.334 38.2452 35.7378 38.9589C35.7572 38.9935 35.7832 39.0356 35.8339 39.1047C36.0995 38.5724 36.3889 38.0659 36.6091 37.5476C36.7862 37.1297 36.7916 36.6935 36.4731 36.2821C36.4688 36.2767 36.4731 36.2681 36.4796 36.2681H38.0721H38.07Z" fill="black"/>
<path d="M30.9131 42.1756H29.1726C29.4436 41.8905 29.4468 41.5633 29.4468 41.234C29.4458 39.9026 29.4468 38.5701 29.4468 37.2387C29.4468 36.8996 29.4641 36.5573 29.165 36.2615H30.9077C30.5719 36.634 30.6378 37.0713 30.6367 37.4968C30.6345 38.663 30.6345 39.8302 30.6367 40.9964C30.6367 41.4024 30.5805 41.8214 30.9142 42.1766L30.9131 42.1756Z" fill="black"/>
<path d="M25.7706 40.653V40.1293C25.7706 39.1791 25.7555 38.2289 25.7771 37.2797C25.7868 36.8435 25.6119 36.5487 25.2286 36.3489C25.2059 36.3371 25.1876 36.3144 25.139 36.2712H26.7056C26.5793 36.3554 26.5145 36.3964 26.4519 36.4407C26.2014 36.6189 26.0621 36.8435 26.0643 37.1609C26.0729 38.4535 26.0794 39.2763 26.0621 40.5688C26.0557 41.0763 26.3558 41.7425 26.7953 42.141C25.3603 42.0179 24.7406 41.4186 24.3692 41.0698C23.4611 40.2189 22.7507 39.2201 22.0953 38.1814C22.0327 38.082 21.9495 37.9492 21.8545 37.7937C21.8502 37.9157 21.8513 38.0151 21.8513 38.0842C21.8502 39.1424 21.8642 40.2006 21.8426 41.2577C21.834 41.6551 22.268 42.0978 22.4375 42.1637H20.9216C20.994 42.1151 21.0415 42.0816 21.0901 42.0514C21.3935 41.8667 21.5597 41.6216 21.5565 41.2545C21.5457 39.9026 21.5414 38.5506 21.5587 37.1998C21.5641 36.8165 21.4107 36.566 21.0857 36.3856C21.0598 36.3705 21.0026 36.323 20.994 36.2928C21.4831 36.2388 21.9258 36.2733 22.3684 36.539C22.7215 36.7506 22.9731 37.0378 23.2095 37.337C23.6522 37.8952 24.042 38.4923 24.462 39.0679C24.7708 39.4912 24.8399 39.5603 25.1692 39.9684C25.3679 40.2157 25.5752 40.4695 25.7695 40.6541L25.7706 40.653Z" fill="black"/>
<path d="M40.8779 17.8379C41.3595 18.3195 41.6434 18.9231 41.7309 19.5494C41.8184 18.922 42.1023 18.3163 42.585 17.8336C43.0654 17.3531 43.6679 17.0691 44.2931 16.9805C43.669 16.892 43.0676 16.608 42.5871 16.1275C42.1023 15.6427 41.8173 15.0326 41.732 14.402C41.6456 15.0315 41.3606 15.6384 40.8779 16.1221C40.3867 16.6134 39.7691 16.8985 39.1299 16.9805C39.7691 17.0626 40.3867 17.3477 40.8779 17.839V17.8379Z" fill="black"/>
<path d="M8.12159 24.1148L8.05572 33.1851C9.18185 33.2304 13.735 30.7577 13.9293 25.8781C14.0837 21.9865 10.8187 20.5471 6.26232 22.5685C4.84034 23.1991 1.00629 24.118 0 19.1606C0.962022 20.1551 3.26397 21.33 5.48926 19.8279C12.2796 15.2453 18.2687 19.3561 17.1166 27.0097C16.7971 29.1348 14.6538 34.2249 8.89141 34.3416C8.66143 34.3459 8.05463 34.4139 8.05463 34.4139C8.05463 34.4139 8.0514 34.5359 8.0514 34.6299C8.04925 35.7162 8.19393 39.1003 7.68754 40.4047C6.75791 42.8029 4.83711 43.9626 2.54596 43.9993C1.79125 44.0112 0.869171 43.8525 0.16628 43.0988C0.355229 43.0664 0.518266 43.0556 0.65323 43.0469C2.90874 42.9076 4.3264 41.5568 4.52399 39.2784C4.62548 38.1101 4.72914 30.9294 4.74641 28.1975C4.73346 27.1339 5.12863 26.1491 6.05178 25.5142C6.71796 25.0563 7.39494 24.6093 8.12051 24.1137L8.12159 24.1148Z" fill="black"/>
<path d="M57.3072 9.81612C57.1086 9.40255 56.9196 8.97279 56.6443 8.60782C55.9144 7.63816 54.3855 7.6306 53.2594 8.24393C50.3085 6.34239 47.8975 8.30223 48.6242 10.6584C49.1198 12.2662 50.6238 12.8115 51.3062 14.1375C51.6042 14.7163 51.1226 14.9797 50.8905 14.9894C50.2654 15.0154 49.7287 14.7454 49.1835 14.5197C45.316 12.9152 40.8568 7.18896 36.4667 3.75735C30.5304 -0.882559 19.7311 -2.26255 16.9703 5.69667C14.948 5.98066 13.1179 6.02061 10.369 3.37834C10.3021 6.48169 13.3781 8.26336 16.1055 7.72022C17.7175 7.41896 19.4925 7.04751 21.1402 7.1976C24.2098 7.54637 24.3124 10.4089 22.3797 12.4001C21.4922 13.3147 21.0462 14.3696 20.9858 15.6136H18.9592C18.6029 14.0101 18.3696 10.1347 18.5316 7.9567C17.8373 8.04309 17.2878 8.10895 16.6551 8.24393C16.5784 11.2469 17.115 14.2336 17.4929 17.2678C19.2917 17.2905 22.5157 17.283 22.5157 17.283C22.0515 13.0696 25.5368 13.2207 25.5368 9.65415C25.5368 6.96976 23.7466 4.70325 19.0466 5.42672C21.8118 0.339772 29.9582 1.73488 34.1496 4.46462C38.4134 7.24187 41.9257 12.2198 46.6267 15.2886C48.1578 16.2885 50.2405 17.1145 51.8288 16.6631C52.8027 16.3867 53.3987 15.3361 53.2335 14.4236C52.983 12.737 51.4304 11.966 50.4845 10.7177C49.8756 9.87982 50.2384 8.75035 51.5696 9.20279C51.7532 9.26542 51.9486 9.34857 52.1732 9.42631C52.1926 8.70608 53.3792 9.28054 53.2605 8.24717C54.4579 8.41778 55.394 8.79786 55.8788 9.81396C55.1338 9.49541 54.4104 9.34856 53.8068 9.55157C53.4786 9.66171 53.1698 10.1077 53.3544 10.7415C52.902 10.6033 52.292 9.69194 52.1721 9.42631C51.9141 10.0364 52.2984 11.0881 53.0456 11.5902C53.7031 12.0319 54.6911 12.0351 55.137 11.5859C54.9297 11.5503 54.7138 11.533 54.5518 11.4261C54.1707 11.1777 54.338 10.8149 54.4827 10.721C54.7548 10.545 55.1543 10.7048 55.5862 11.0492C55.9533 11.3419 56.3333 11.6669 56.7382 11.9055C57.6333 12.4249 58.6687 12.5869 59.6556 12.2392C58.5014 11.6507 57.8525 10.9812 57.3061 9.8172L57.3072 9.81612Z" fill="url(#paint7_linear_2055_774)"/>
<defs>
<linearGradient id="paint0_linear_2055_774" x1="13.9434" y1="39.6142" x2="15.8555" y2="39.6142" gradientUnits="userSpaceOnUse">
<stop stop-color="#CF2027"/>
<stop offset="0.41" stop-color="#D8232E"/>
<stop offset="0.99" stop-color="#EE2C3F"/>
</linearGradient>
<linearGradient id="paint1_linear_2055_774" x1="16.3838" y1="39.6153" x2="18.27" y2="39.6153" gradientUnits="userSpaceOnUse">
<stop stop-color="#CF2027"/>
<stop offset="0.41" stop-color="#D8232E"/>
<stop offset="0.99" stop-color="#EE2C3F"/>
</linearGradient>
<linearGradient id="paint2_linear_2055_774" x1="18.5867" y1="40.7675" x2="19.16" y2="40.7675" gradientUnits="userSpaceOnUse">
<stop stop-color="#CF2027"/>
<stop offset="0.41" stop-color="#D8232E"/>
<stop offset="0.99" stop-color="#EE2C3F"/>
</linearGradient>
<linearGradient id="paint3_linear_2055_774" x1="53.259" y1="39.6023" x2="54.0537" y2="39.6023" gradientUnits="userSpaceOnUse">
<stop stop-color="#CF2027"/>
<stop offset="0.41" stop-color="#D8232E"/>
<stop offset="0.99" stop-color="#EE2C3F"/>
</linearGradient>
<linearGradient id="paint4_linear_2055_774" x1="54.7952" y1="39.5991" x2="56.7084" y2="39.5991" gradientUnits="userSpaceOnUse">
<stop stop-color="#CF2027"/>
<stop offset="0.41" stop-color="#D8232E"/>
<stop offset="0.99" stop-color="#EE2C3F"/>
</linearGradient>
<linearGradient id="paint5_linear_2055_774" x1="57.311" y1="39.5991" x2="59.2243" y2="39.5991" gradientUnits="userSpaceOnUse">
<stop stop-color="#CF2027"/>
<stop offset="0.41" stop-color="#D8232E"/>
<stop offset="0.99" stop-color="#EE2C3F"/>
</linearGradient>
<linearGradient id="paint6_linear_2055_774" x1="59.7805" y1="39.6153" x2="61.6398" y2="39.6153" gradientUnits="userSpaceOnUse">
<stop stop-color="#CF2027"/>
<stop offset="0.41" stop-color="#D8232E"/>
<stop offset="0.99" stop-color="#EE2C3F"/>
</linearGradient>
<linearGradient id="paint7_linear_2055_774" x1="40.1463" y1="-1.08557" x2="26.5359" y2="22.4877" gradientUnits="userSpaceOnUse">
<stop stop-color="#CF2027"/>
<stop offset="0.41" stop-color="#D8232E"/>
<stop offset="0.99" stop-color="#EE2C3F"/>
</linearGradient>
</defs>
</svg>
