<svg width="61" height="33" viewBox="0 0 61 33" fill="none" xmlns="http://www.w3.org/2000/svg">
<path d="M10.8615 17.9156V11.8359C10.8615 9.96294 10.8615 8.08995 10.8615 6.21697C10.8709 5.82787 10.8465 5.43869 10.7884 5.05384C10.6044 3.82811 10.0101 2.70101 9.10272 1.85665C8.49452 1.2989 7.76349 0.892259 6.96885 0.669682C6.17421 0.447105 5.33831 0.414848 4.52888 0.575525C3.30942 0.756178 2.19356 1.36349 1.37973 2.28946C0.565909 3.21543 0.106882 4.40003 0.0842845 5.63259C0.0337138 6.38553 0.0337138 7.17219 0.0337138 7.95884C0.0337138 10.2064 0.0337138 12.4671 0.0337138 14.7409C0.0337138 15.3927 0 16.0445 0 16.6907C0.0224759 19.9085 0.0337138 23.1263 0.0337138 26.3441C0.0180057 27.3035 0.18584 28.2571 0.528183 29.1536C0.768435 29.8412 1.1544 30.4688 1.65966 30.9935C2.16492 31.5181 2.77756 31.9275 3.45566 32.1934C4.62437 32.6152 5.90108 32.631 7.07989 32.2384C8.23046 31.9398 9.23908 31.2455 9.92871 30.2774C10.5886 29.2799 10.9206 28.1012 10.8783 26.906C10.8896 23.9111 10.8671 20.9106 10.8615 17.9156ZM7.81598 27.1251C7.72743 27.6622 7.45467 28.1516 7.04454 28.5095C6.6344 28.8673 6.11248 29.0712 5.56839 29.0861C4.74241 29.1142 3.40509 28.5917 3.1691 27.4679C3.11432 27.2395 3.08418 27.0059 3.07919 26.7711C3.07919 24.5685 3.07919 22.3715 3.07919 20.1745C3.07919 18.1179 3.07919 16.0614 3.04548 13.9936C3.04548 13.0103 3.04548 12.0326 3.04548 11.0549C3.04548 9.67825 3.09043 8.29598 3.10167 6.91372C3.05187 6.53932 3.06707 6.15914 3.14662 5.78992C3.27031 5.3329 3.5119 4.91639 3.84718 4.58209C4.18246 4.2478 4.59968 4.00744 5.05707 3.88509C5.67565 3.76527 6.31656 3.89299 6.84195 4.2408C7.36734 4.58861 7.73525 5.12872 7.86655 5.74497C7.90409 6.0186 7.91538 6.29519 7.90026 6.57096C7.90026 9.87116 7.90026 13.1676 7.90026 16.4603C7.90026 19.5002 7.90026 22.5457 7.90026 25.5855C7.9116 26.1001 7.88343 26.6148 7.81598 27.1251Z" fill="#EE2C3F"/>
<path d="M60.0218 30.9011C60.0218 31.6934 59.679 31.8844 59.1508 31.9069C58.6226 31.9294 58.1394 31.9069 57.6337 31.9069C57.5025 31.8986 57.3784 31.8446 57.2829 31.7543C57.1874 31.6639 57.1267 31.543 57.1111 31.4124C57.0596 31.057 57.0333 30.6984 57.0325 30.3392C57.0325 24.9038 57.0325 19.4721 57.0325 14.0442C57.0398 13.4525 56.9564 12.8632 56.7852 12.2967C56.7165 12.0498 56.5987 11.8192 56.4388 11.6189C56.2789 11.4185 56.0802 11.2525 55.8546 11.1308C55.629 11.0091 55.3811 10.9341 55.1259 10.9105C54.8706 10.8868 54.6132 10.9149 54.3691 10.9931C53.9793 11.1139 53.6027 11.2739 53.2453 11.4707C52.9515 11.6237 52.7064 11.8558 52.5376 12.1408C52.3688 12.4257 52.283 12.7522 52.2901 13.0834C52.2901 17.4325 52.2901 21.7815 52.2901 26.1306C52.2901 27.1083 52.2901 28.086 52.2901 29.0637C52.2901 29.6762 52.3294 30.2887 52.2901 30.9011C52.2901 31.6203 51.9754 31.9069 51.2506 31.9294C50.8235 31.9294 50.3965 31.9294 49.9694 31.9294C49.8863 31.9406 49.8018 31.933 49.722 31.9072C49.6422 31.8814 49.5692 31.8382 49.5083 31.7805C49.4474 31.7228 49.4002 31.6523 49.3701 31.574C49.3401 31.4958 49.3279 31.4118 49.3345 31.3282C49.3008 30.6651 49.2952 30.0077 49.2952 29.3447V9.86934C49.2952 9.50973 49.2502 9.15573 49.2109 8.79612C49.1378 8.17241 49.3008 7.9308 49.9133 7.83528C50.1428 7.81127 50.3736 7.80001 50.6044 7.80156C50.7449 7.79306 50.8852 7.8206 51.0121 7.88157C51.1389 7.94255 51.2481 8.03492 51.3292 8.14994C51.4978 8.38031 51.6383 8.62755 51.7844 8.86916C51.8237 8.92535 51.8518 8.98154 51.9024 9.06021C52.1103 8.91974 52.3069 8.79612 52.5036 8.6725C53.1336 8.21745 53.8367 7.87348 54.5826 7.65547C55.0989 7.50978 55.6393 7.46986 56.1714 7.53811C56.7035 7.60637 57.2163 7.78138 57.6792 8.05267C58.142 8.32395 58.5452 8.68592 58.8647 9.11685C59.1842 9.54778 59.4134 10.0388 59.5385 10.5605C59.7126 11.223 59.8255 11.9001 59.8757 12.5833C59.9543 13.4711 59.9543 14.3645 59.9712 15.2523C59.9881 16.1401 59.9712 17.1122 59.9712 18.0618C59.9712 20.2476 59.9712 22.4333 59.9712 24.6247C59.9712 25.7935 59.9712 26.9622 60.0161 28.131C60.0105 29.0356 60.0218 29.9684 60.0218 30.9011Z" fill="#EE2C3F"/>
<path d="M34.2476 24.2313C33.7175 24.2904 33.202 24.4426 32.7248 24.6808C32.5765 24.746 32.4511 24.8542 32.3649 24.9915C32.2788 25.1287 32.2358 25.2887 32.2416 25.4506C32.2079 25.9732 32.1854 26.5014 32.1236 27.0183C32.1046 27.4058 31.9726 27.7794 31.744 28.0929C31.5154 28.4063 31.2001 28.6461 30.8369 28.7827C30.4612 28.9098 30.0625 28.9538 29.6681 28.9119C29.3523 28.9228 29.0405 28.8386 28.773 28.6703C28.5056 28.502 28.2947 28.2573 28.1679 27.9679C27.9818 27.5044 27.8315 27.0272 27.7183 26.5407C27.6416 26.2341 27.6095 25.9181 27.6228 25.6023C27.6451 25.2182 27.7488 24.8432 27.927 24.5022C28.1053 24.1612 28.354 23.862 28.6567 23.6245L31.0785 21.5567C31.9288 20.8751 32.6847 20.0834 33.3261 19.2023C34.2182 17.9156 34.7516 16.4144 34.8713 14.8533C34.9106 14.3925 34.8713 13.9261 34.9275 13.4598C34.9779 12.681 34.8826 11.8998 34.6465 11.156C34.0228 9.13877 32.4551 7.61603 30.1514 7.55984C29.1539 7.5024 28.1614 7.73879 27.2969 8.23973C26.7344 8.54634 26.2477 8.97496 25.8724 9.49416C25.4971 10.0134 25.2427 10.61 25.128 11.2403C24.9697 12.187 24.8983 13.1462 24.9145 14.1059C24.9145 16.685 24.9145 19.2698 24.9482 21.8545C24.9482 23.4896 24.9482 25.1247 24.9482 26.9116C24.9756 27.4772 25.0413 28.0404 25.1449 28.5972C25.4552 29.7442 26.1746 30.738 27.1673 31.3912C28.1599 32.0443 29.3572 32.3117 30.5334 32.1428C31.4714 32.0128 32.352 31.615 33.0696 30.9971C33.7872 30.3792 34.3113 29.5674 34.5791 28.659C34.9312 27.3796 35.0418 26.0457 34.905 24.7258C34.8969 24.649 34.8731 24.5747 34.8351 24.5076C34.7971 24.4404 34.7456 24.3818 34.6839 24.3354C34.6222 24.289 34.5517 24.2558 34.4766 24.2379C34.4015 24.22 34.3236 24.2178 34.2476 24.2313ZM27.6734 20.7251C27.6734 19.0394 27.6734 17.3537 27.6734 15.6343C27.6734 14.6173 27.7127 13.6002 27.7802 12.5888C27.7791 12.3137 27.8354 12.0415 27.9455 11.7894C28.0556 11.5373 28.2171 11.311 28.4196 11.1249C28.6221 10.9387 28.8613 10.7969 29.1217 10.7084C29.3822 10.6199 29.6582 10.5867 29.9322 10.6109C30.2864 10.6363 30.628 10.7532 30.9235 10.9502C31.219 11.1472 31.4583 11.4175 31.6179 11.7347C31.8658 12.2436 32.0164 12.7944 32.0618 13.3586C32.2379 14.592 32.0423 15.8499 31.4999 16.9716C30.9574 18.0356 30.2064 18.9795 29.2917 19.7474C28.8534 20.1295 28.3589 20.4554 27.8869 20.8094C27.8363 20.8487 27.7689 20.8768 27.6678 20.9386L27.6734 20.7251Z" fill="#EE2C3F"/>
<path d="M47.0813 27.2206V16.3086C47.0899 16.2302 47.0899 16.1511 47.0813 16.0726C47.0447 15.9822 47.0183 15.888 47.0026 15.7917C47.0026 15.3871 47.0026 14.9882 47.0026 14.5836H47.0644C47.0139 13.7969 46.9801 13.0159 46.9071 12.2293C46.8739 11.5734 46.6975 10.9328 46.3902 10.3525C45.9961 9.70283 45.4856 9.13138 44.8843 8.66683C44.3176 8.1714 43.6387 7.82143 42.9064 7.64717C42.1741 7.47291 41.4104 7.4796 40.6813 7.66665C39.4286 8.0344 38.3224 8.78496 37.5178 9.8131C37.4608 9.87244 37.4263 9.94976 37.4202 10.0318C37.414 10.1138 37.4366 10.1954 37.4841 10.2626C37.6527 10.5492 37.7931 10.8245 37.9729 11.1392C38.1417 11.4124 38.3295 11.6733 38.5348 11.9202C38.5723 11.9728 38.6203 12.0169 38.6758 12.0497C38.7314 12.0826 38.7932 12.1034 38.8573 12.1108C38.9214 12.1182 38.9863 12.1121 39.0479 12.0928C39.1095 12.0735 39.1663 12.0415 39.2147 11.9989C39.3514 11.9014 39.4809 11.7944 39.6024 11.6786C39.9322 11.35 40.3114 11.0751 40.7262 10.8638C41.1909 10.615 41.7314 10.5473 42.2431 10.674C42.7548 10.8006 43.2014 11.1125 43.4964 11.5494C43.992 12.2527 44.2925 13.0747 44.3673 13.9318C44.4054 14.2098 44.3632 14.4929 44.2458 14.7478C44.1283 15.0026 43.9404 15.2186 43.7043 15.3703C42.9738 15.8984 42.2546 16.4547 41.5354 16.9998C40.3158 17.8767 39.2311 18.9273 38.3157 20.1183C37.1122 21.7245 36.4351 23.6636 36.3772 25.6698C36.3363 26.6511 36.4251 27.6336 36.6413 28.5917C36.8382 29.6632 37.4049 30.6316 38.2427 31.3281C38.6942 31.6942 39.2178 31.9609 39.7793 32.111C40.3409 32.261 40.9277 32.2911 41.5017 32.199C42.2528 32.0638 42.9635 31.7603 43.5807 31.3113C43.7492 31.1989 43.9122 31.0921 44.0864 30.9966C44.133 30.9592 44.187 30.9318 44.2447 30.9163C44.3025 30.9008 44.3629 30.8974 44.422 30.9064C44.4811 30.9153 44.5378 30.9365 44.5883 30.9685C44.6389 31.0004 44.6822 31.0425 44.7157 31.0921C44.8295 31.2079 44.9347 31.3318 45.0304 31.463C45.1496 31.6442 45.3204 31.7855 45.5207 31.8686C45.721 31.9517 45.9417 31.9729 46.1542 31.9293C46.7891 31.8394 47.0307 31.6933 47.1038 31.1202C47.1038 31.0528 47.1038 30.9854 47.1038 30.9123C47.0981 29.6818 47.0813 28.4512 47.0813 27.2206ZM44.2718 22.8772V26.3441C44.288 26.9009 44.1277 27.4486 43.8138 27.9088C43.4999 28.369 43.0486 28.7181 42.5243 28.9063C41.9943 29.1288 41.3985 29.1359 40.8634 28.926C40.3283 28.7162 39.8961 28.306 39.6586 27.7825C39.5066 27.3428 39.4085 26.8862 39.3665 26.4228C39.2207 25.4856 39.2743 24.5283 39.5238 23.6133C39.8183 22.55 40.4018 21.5891 41.2095 20.8375C41.9905 20.0958 42.8109 19.3934 43.6144 18.6798C43.6734 18.635 43.7376 18.5973 43.8054 18.5674C43.8347 18.5461 43.8685 18.532 43.9042 18.5262C43.9399 18.5204 43.9764 18.5231 44.0109 18.534C44.0454 18.5449 44.0768 18.5638 44.1026 18.5892C44.1284 18.6145 44.1479 18.6456 44.1594 18.6798C44.226 18.8112 44.2661 18.9544 44.2774 19.1012C44.2774 20.0677 44.2774 21.0342 44.2774 22.0006L44.2718 22.8772Z" fill="#EE2C3F"/>
<path d="M15.8117 14.5893V22.7368C15.8117 23.8887 15.8117 25.0406 15.8398 26.1924C15.8486 26.6881 15.9496 27.1778 16.1376 27.6365C16.2643 27.9585 16.479 28.2384 16.7572 28.4441C17.0354 28.6498 17.366 28.773 17.7109 28.7996C18.1172 28.86 18.5317 28.8293 18.9246 28.7097C19.2521 28.6157 19.5448 28.4278 19.7665 28.1691C19.9882 27.9104 20.1292 27.5924 20.1721 27.2544C20.2676 26.76 20.3013 26.2486 20.3687 25.7485C20.3687 25.6305 20.4024 25.5182 20.4193 25.4002C20.4293 25.2107 20.5022 25.03 20.6263 24.8866C20.7504 24.7431 20.9188 24.6451 21.1048 24.6079C21.5599 24.4955 22.0095 24.3438 22.459 24.2146C22.5133 24.204 22.5691 24.2044 22.6232 24.2158C22.6774 24.2271 22.7287 24.2491 22.7742 24.2805C22.8197 24.3119 22.8585 24.352 22.8883 24.3986C22.9181 24.4452 22.9384 24.4972 22.9478 24.5517C23.0489 25.3736 23.0771 26.2028 23.0321 27.0297C22.9916 27.8081 22.8008 28.5713 22.4702 29.2773C22.1568 29.9886 21.6851 30.6191 21.0911 31.1205C20.4971 31.622 19.7965 31.9813 19.0426 32.171C18.1634 32.3699 17.2445 32.2974 16.4073 31.9631C15.4169 31.6372 14.5514 31.0131 13.9294 30.1763C13.4912 29.5708 13.2323 28.8542 13.1821 28.1085C13.1259 27.2713 13.0865 26.4228 13.0641 25.5856C13.0247 24.2483 13.0079 22.8997 12.9854 21.5568C12.9517 21.046 12.9517 20.5336 12.9854 20.0228C13.1203 18.7979 13.0247 17.5786 13.0472 16.3593C13.0697 15.1399 13.0191 13.915 13.0472 12.6957C13.0354 11.9583 13.1795 11.2268 13.47 10.549C13.7605 9.8712 14.1908 9.26238 14.7329 8.76241C15.6051 8.01713 16.7049 7.59057 17.8515 7.55279C18.9982 7.51501 20.1236 7.86825 21.043 8.55451C22.0221 9.32534 22.692 10.422 22.931 11.6449C23.0567 12.3095 23.1038 12.9866 23.0714 13.6622C23.0714 14.0161 22.8354 14.224 22.3747 14.2971C21.9433 14.3981 21.4906 14.3526 21.0879 14.1679C20.913 14.0685 20.7619 13.9319 20.6454 13.7679C20.5289 13.6038 20.4498 13.4162 20.4137 13.2183C20.3518 12.8847 20.2596 12.5574 20.1383 12.2406C19.9908 11.8401 19.7244 11.4943 19.375 11.2493C19.0256 11.0043 18.6097 10.8718 18.1829 10.8695C17.6548 10.8219 17.1289 10.9818 16.7166 11.3153C16.3044 11.6489 16.0383 12.1299 15.9747 12.6564C15.8873 13.2974 15.8329 13.9426 15.8117 14.5893Z" fill="#EE2C3F"/>
</svg>
